<svg xmlns="http://www.w3.org/2000/svg" width="74" height="18" viewBox="0 0 74 18" fill="none">
    <path d="M8.99895 15.2872C8.456 15.2872 7.92053 15.0895 7.50397 14.6943C5.89008 13.1573 6.2524 8.9213 7.96512 7.19936C9.39316 5.7636 10.787 5.81284 12.8409 5.55291C13.5094 5.46829 13.9673 5.42801 14.4507 5.34015C15.3399 5.11958 15.2752 4.33434 15.2529 4.19528C15.2306 4.05621 15.0308 3.3054 14.2499 3.40055C13.0673 3.53962 11.4979 4.35207 9.98818 4.9303C7.86846 5.75006 5.6446 6.84069 4.00089 6.65035C2.9894 6.53326 2.19357 5.82322 2.02995 4.82783C1.87376 3.83971 2.33489 2.91747 3.26461 2.50027C4.80418 1.79761 7.80152 1.73174 9.41542 3.02726L8.03953 3.5323C6.39582 2.815 4.58104 3.21025 3.87449 3.69333C3.45794 3.96414 3.38361 4.30815 3.42821 4.60825C3.45055 4.74732 3.59928 5.20113 4.17196 5.26699C5.45866 5.4134 7.51884 4.38866 9.46749 3.63477C11.0666 3.01995 12.7177 2.17822 14.0788 2.0172C15.5217 1.85616 16.4291 2.8516 16.5927 3.93486C16.7489 5.01081 16.1167 6.48202 14.6887 6.71621C14.0639 6.81868 13.6869 6.90854 12.8409 6.9861C11.5375 7.10569 9.99557 7.02862 8.99895 8.08994C8.48573 8.63895 8.08412 9.5561 7.96512 10.859C7.84612 12.1618 8.04692 13.2744 8.4932 13.6916C8.81301 13.999 9.26669 13.9331 9.51956 13.6989C10.3674 12.9158 10.3972 11.2104 9.6609 8.37769L11.0443 7.83607C11.8401 10.7858 11.9963 13.3183 10.4939 14.7163C10.0625 15.0969 9.53442 15.2872 8.99895 15.2872Z" fill="white"/>
    <path d="M17.9153 15.2474C17.1675 15.2474 16.4986 15.0702 15.9089 14.7149C15.3192 14.3605 14.8567 13.8762 14.5205 13.262C14.1852 12.6486 14.0171 11.9534 14.0171 11.1766C14.0171 10.3996 14.1824 9.70898 14.5132 9.10566C14.844 8.50134 15.2919 8.02699 15.858 7.68177C16.4241 7.33647 17.0666 7.16382 17.7853 7.16382C18.3515 7.16382 18.8567 7.26463 19.3029 7.46544C19.749 7.66632 20.1298 7.94253 20.446 8.2924C20.7623 8.64219 21.0021 9.04022 21.1648 9.48634C21.3274 9.93254 21.4092 10.395 21.4092 10.8748C21.4092 10.9802 21.4064 11.0975 21.4019 11.2274C21.3974 11.3564 21.3801 11.4837 21.352 11.6081H14.9802V10.4577H20.5759L19.9435 10.9611C20.0298 10.4723 19.9816 10.0289 19.7999 9.63084C19.6173 9.23288 19.3492 8.91848 18.9948 8.68852C18.6395 8.45866 18.237 8.34322 17.7863 8.34322C17.3356 8.34322 16.923 8.46048 16.5495 8.69583C16.1752 8.93118 15.8854 9.25921 15.6791 9.68083C15.4728 10.1034 15.3892 10.6068 15.4274 11.1911C15.3792 11.7572 15.4655 12.2533 15.6863 12.6795C15.9071 13.1065 16.2134 13.4373 16.6068 13.6717C17.0002 13.9071 17.4365 14.0243 17.9153 14.0243C18.4333 14.0243 18.8694 13.9044 19.2238 13.6645C19.5782 13.4246 19.8663 13.1229 20.0871 12.7586L21.2093 13.3192C21.0557 13.6735 20.8186 13.998 20.4968 14.2897C20.1752 14.5822 19.7972 14.8148 19.3601 14.9875C18.9231 15.1601 18.4424 15.2465 17.9144 15.2465L17.9153 15.2474Z" fill="white"/>
    <path d="M25.3374 15.2473C24.8285 15.2473 24.3806 15.1564 23.9926 14.9738C23.6045 14.792 23.3002 14.5349 23.0794 14.2042C22.8585 13.8734 22.7486 13.4872 22.7486 13.0465C22.7486 12.6339 22.8376 12.2623 23.0148 11.9316C23.1921 11.6008 23.4701 11.3182 23.849 11.0828C24.228 10.8484 24.705 10.6821 25.2801 10.5867L28.1425 10.126V11.2482L25.5818 11.6944C25.083 11.7807 24.7213 11.9388 24.4959 12.1687C24.2706 12.3986 24.158 12.6766 24.158 13.0028C24.158 13.3291 24.2824 13.5853 24.5323 13.8007C24.7813 14.0161 25.103 14.1242 25.4965 14.1242C25.9853 14.1242 26.4096 14.0188 26.7695 13.808C27.1293 13.5972 27.4092 13.3146 27.611 12.9592C27.8127 12.6049 27.9126 12.2114 27.9126 11.7798V9.80884C27.9126 9.38722 27.759 9.04466 27.4519 8.78025C27.1447 8.51674 26.7377 8.38495 26.2288 8.38495C25.7782 8.38495 25.3847 8.49764 25.0494 8.72303C24.7141 8.94833 24.4641 9.2482 24.3015 9.62166L23.1366 9.01742C23.2802 8.66299 23.5109 8.34409 23.8272 8.06058C24.1434 7.77798 24.5105 7.55716 24.9276 7.39904C25.3447 7.24092 25.7881 7.16187 26.2579 7.16187C26.8431 7.16187 27.3629 7.27182 27.8181 7.49263C28.2733 7.71345 28.6305 8.02238 28.8894 8.42041C29.1485 8.81836 29.2774 9.28092 29.2774 9.80884V15.0737H27.9544V13.6062L28.1988 13.6926C28.0362 13.9997 27.8154 14.2678 27.5373 14.4976C27.2593 14.7275 26.9331 14.9102 26.5596 15.0437C26.1852 15.1783 25.7782 15.2455 25.3374 15.2455V15.2473Z" fill="white"/>
    <path d="M31.3358 15.0748V4.18604H32.6733V8.83211L32.4289 8.70306C32.6106 8.21426 32.9178 7.83532 33.3494 7.56725C33.7811 7.29918 34.2799 7.16465 34.8451 7.16465C35.4103 7.16465 35.9119 7.28922 36.3481 7.5391C36.7842 7.78898 37.1295 8.13154 37.384 8.5677C37.6384 9.00385 37.7647 9.49996 37.7647 10.0561V15.0757H36.4126V10.4869C36.4126 10.0552 36.3335 9.6908 36.1754 9.39366C36.0173 9.09653 35.7992 8.86392 35.5212 8.69583C35.2431 8.52858 34.9214 8.44413 34.557 8.44413C34.1926 8.44413 33.881 8.52858 33.593 8.69583C33.3049 8.86392 33.0795 9.09835 32.9169 9.40097C32.7542 9.70267 32.6724 10.0652 32.6724 10.4869V15.0757H31.3349L31.3358 15.0748Z" fill="white"/>
    <path d="M43.3603 15.2474C42.6125 15.2474 41.9364 15.0702 41.3322 14.7149C40.7279 14.3605 40.2481 13.878 39.8937 13.2692C39.5384 12.6604 39.3612 11.9671 39.3612 11.1911C39.3612 10.415 39.5357 9.72351 39.8865 9.12019C40.2363 8.51587 40.7133 8.03886 41.3177 7.68899C41.9219 7.33913 42.6025 7.16382 43.3603 7.16382C44.1182 7.16382 44.7816 7.33647 45.3812 7.68177C45.981 8.02699 46.4572 8.50408 46.8124 9.11288C47.1668 9.72169 47.3449 10.415 47.3449 11.1911C47.3449 11.9671 47.1623 12.6749 46.7988 13.2837C46.4344 13.8925 45.9519 14.3724 45.3531 14.7222C44.7533 15.072 44.0891 15.2474 43.3612 15.2474H43.3603ZM43.3603 13.9525C43.8492 13.9525 44.2835 13.8326 44.6616 13.5927C45.0405 13.3528 45.3449 13.0221 45.5748 12.6004C45.8047 12.1788 45.9201 11.7036 45.9201 11.1766C45.9201 10.6495 45.8074 10.1933 45.5821 9.78173C45.3567 9.36916 45.0496 9.04296 44.6616 8.80396C44.2736 8.56404 43.8392 8.44412 43.3603 8.44412C42.8815 8.44412 42.4325 8.56678 42.0446 8.81118C41.6566 9.05567 41.3495 9.38461 41.1241 9.79626C40.8987 10.2087 40.7861 10.674 40.7861 11.1911C40.7861 11.7081 40.8987 12.1788 41.1241 12.6004C41.3495 13.023 41.6566 13.3537 42.0446 13.5927C42.4325 13.8326 42.8714 13.9525 43.3603 13.9525Z" fill="white"/>
    <path d="M51.8319 15.2474C51.2658 15.2474 50.7651 15.1183 50.3289 14.8593C49.8928 14.6004 49.5502 14.2406 49.3003 13.7807C49.0504 13.3201 48.9259 12.7839 48.9259 12.1697V7.33636H50.2635V12.0252C50.2635 12.4087 50.3426 12.7439 50.5007 13.032C50.6588 13.3201 50.8769 13.5454 51.1549 13.7081C51.4329 13.8707 51.7592 13.9525 52.1327 13.9525C52.487 13.9525 52.8088 13.8707 53.0968 13.7081C53.3848 13.5454 53.6075 13.31 53.7655 13.0029C53.9236 12.6958 54.0027 12.3368 54.0027 11.9243V7.33545H55.3548V15.0738H54.0455V13.5636L54.2608 13.6926C54.079 14.1815 53.7692 14.5631 53.333 14.8357C52.8969 15.1092 52.3953 15.2456 51.8301 15.2456L51.8319 15.2474Z" fill="white"/>
    <path d="M60.1887 15.2473C59.4209 15.2473 58.7503 15.0556 58.175 14.6721C57.5999 14.2886 57.1919 13.7708 56.952 13.1183L58.0161 12.6148C58.2369 13.0656 58.5385 13.4255 58.922 13.6934C59.3054 13.9624 59.7271 14.096 60.1878 14.096C60.6094 14.096 60.9593 13.9951 61.2373 13.7943C61.5153 13.5926 61.6544 13.3291 61.6544 13.0028C61.6544 12.773 61.5917 12.5903 61.4672 12.4558C61.3427 12.3214 61.1891 12.2114 61.0065 12.1251C60.8238 12.0388 60.6567 11.9761 60.5031 11.9379L59.3236 11.6072C58.6431 11.4054 58.1397 11.1201 57.8135 10.7512C57.4872 10.3823 57.3246 9.94337 57.3246 9.43539C57.3246 8.97465 57.4417 8.57488 57.6771 8.23414C57.9124 7.89333 58.2332 7.62982 58.6412 7.44264C59.0483 7.25546 59.5018 7.16187 60.0006 7.16187C60.6812 7.16187 61.2954 7.33178 61.8416 7.67259C62.3877 8.01333 62.7721 8.49034 62.992 9.10371L61.8988 9.62166C61.7353 9.21914 61.4791 8.90016 61.1292 8.66481C60.7793 8.42946 60.3932 8.31229 59.9715 8.31229C59.5781 8.31229 59.2664 8.41036 59.0365 8.60668C58.8066 8.80292 58.6912 9.05463 58.6912 9.36181C58.6912 9.57258 58.7485 9.74797 58.8639 9.88699C58.9792 10.026 59.1183 10.1341 59.2809 10.2105C59.4436 10.2878 59.5972 10.345 59.7417 10.3832L61.022 10.7575C61.6544 10.9402 62.1442 11.2228 62.4895 11.6063C62.8348 11.9897 63.0074 12.4504 63.0074 12.9874C63.0074 13.4191 62.8902 13.807 62.6549 14.1523C62.4195 14.4976 62.0915 14.7657 61.6699 14.9575C61.2482 15.1492 60.7539 15.2455 60.1887 15.2455V15.2473Z" fill="white"/>
    <path d="M68.3587 15.2474C67.6109 15.2474 66.9421 15.0702 66.3524 14.7149C65.7627 14.3605 65.3001 13.8762 64.9639 13.262C64.6286 12.6486 64.4605 11.9534 64.4605 11.1766C64.4605 10.3996 64.6259 9.70898 64.9566 9.10566C65.2874 8.50134 65.7354 8.02699 66.3014 7.68177C66.8676 7.33647 67.51 7.16382 68.2288 7.16382C68.7949 7.16382 69.3001 7.26463 69.7463 7.46544C70.1924 7.66632 70.5732 7.94253 70.8894 8.2924C71.2057 8.64219 71.4455 9.04022 71.6082 9.48634C71.7709 9.93254 71.8526 10.395 71.8526 10.8748C71.8526 10.9802 71.8499 11.0975 71.8454 11.2274C71.8408 11.3564 71.8235 11.4837 71.7954 11.6081H65.4237V10.4577H71.0193L70.3869 10.9611C70.4732 10.4723 70.425 10.0289 70.2433 9.63084C70.0607 9.23288 69.7927 8.91848 69.4382 8.68852C69.083 8.45866 68.6804 8.34322 68.2297 8.34322C67.779 8.34322 67.3665 8.46048 66.993 8.69583C66.6186 8.93118 66.3288 9.25921 66.1225 9.68083C65.9162 10.1034 65.8326 10.6068 65.8708 11.1911C65.8226 11.7572 65.9089 12.2533 66.1297 12.6795C66.3505 13.1065 66.6568 13.4373 67.0503 13.6717C67.4437 13.9071 67.8799 14.0243 68.3587 14.0243C68.8767 14.0243 69.3128 13.9044 69.6673 13.6645C70.0216 13.4246 70.3097 13.1229 70.5305 12.7586L71.6527 13.3192C71.4991 13.6735 71.262 13.998 70.9403 14.2897C70.6186 14.5822 70.2406 14.8148 69.8035 14.9875C69.3665 15.1601 68.8858 15.2465 68.3578 15.2465L68.3587 15.2474Z" fill="white"/>
</svg>