<svg width="20" height="20" viewBox="0 0 20 20" fill="none" xmlns="http://www.w3.org/2000/svg">
    <path
        d="M20.0002 9.99997C20.0002 15.5229 15.5232 19.9999 10.0003 19.9999C4.47738 19.9999 0 15.5229 0 9.99997C0 4.47708 4.47738 0 10.0003 0C15.5232 0 20.0002 4.47708 20.0002 9.99997Z"
        fill="#29296E" />
    <path
        d="M14.6536 7.32656L14.3993 6.54095C14.3477 6.38117 14.2215 6.25683 14.0612 6.2078L13.2717 5.96503C13.1624 5.93166 13.1616 5.77749 13.27 5.74235L14.0559 5.48806C14.2153 5.43637 14.3397 5.31026 14.389 5.14989L14.6315 4.36044C14.6648 4.25146 14.819 4.25028 14.8542 4.35897L15.1085 5.14457C15.1601 5.30406 15.2862 5.4284 15.4466 5.47772L16.2361 5.7202C16.3453 5.75386 16.3465 5.90774 16.2378 5.94288L15.4519 6.19717C15.2924 6.24886 15.1681 6.37526 15.1188 6.53563L14.8763 7.32479C14.8429 7.43406 14.6888 7.43524 14.6536 7.32656Z"
        fill="#FAFAFA" />
    <path
        d="M0.909424 9.84132C1.14717 9.37556 1.61736 9.0247 2.10585 8.8029C2.59937 8.58346 3.14191 8.44878 3.67471 8.40507C4.75034 8.3079 5.79821 8.48777 6.75276 8.79876C7.2445 8.94525 7.68456 9.14874 8.13909 9.3543C8.36001 9.46062 8.56763 9.58112 8.78146 9.69748L9.37214 10.0398C10.0207 10.4373 10.6495 10.7894 11.2402 11.0628C11.8323 11.334 12.3675 11.5174 12.8719 11.611C13.3764 11.7058 13.8891 11.7046 14.5197 11.5599C15.1452 11.4184 15.849 11.1134 16.5847 10.722C17.3248 10.3304 18.0838 9.85018 18.9498 9.38088C18.8629 10.3617 18.5853 11.2814 18.1518 12.1695C17.7076 13.047 17.0897 13.9029 16.1889 14.596C15.3053 15.2948 14.0917 15.7818 12.8563 15.8551C11.6203 15.9386 10.4445 15.6663 9.44421 15.2567C8.44004 14.8412 7.57233 14.2951 6.80326 13.6923C6.59091 13.5257 6.47691 13.4312 6.32008 13.2986L5.88209 12.9149C5.58704 12.684 5.30115 12.4078 5.00906 12.1789C4.42635 11.6919 3.84984 11.204 3.21781 10.7811C2.89914 10.5661 2.57042 10.3667 2.1977 10.1901C2.01252 10.1048 1.81583 10.0253 1.60466 9.9627C1.38847 9.89212 1.16873 9.85018 0.909424 9.84132Z"
        fill="#FF4F0A" />
    <path
        d="M0.909424 9.84182C1.03081 8.83264 1.50129 7.88607 2.2553 7.08038C3.00546 6.28236 4.17738 5.66717 5.47777 5.58565C6.11954 5.54283 6.77107 5.6143 7.37002 5.78028C7.96632 5.94568 8.5251 6.18667 9.02866 6.4705C9.28029 6.61315 9.51568 6.76909 9.75018 6.9265L10.3751 7.39964L11.3506 8.1693C11.9838 8.67345 12.5881 9.13979 13.1466 9.52492C13.7104 9.91064 14.1906 10.1924 14.6493 10.3575C15.1038 10.5376 15.678 10.5837 16.437 10.3929C16.8139 10.3061 17.207 10.1475 17.6263 9.97561C18.0434 9.79959 18.4763 9.5896 18.9498 9.38138C18.8928 9.88878 18.7897 10.3941 18.5939 10.8664C18.4058 11.3451 18.158 11.8135 17.8115 12.2503C17.6343 12.463 17.4444 12.6768 17.2229 12.8741C17.0014 13.0667 16.756 13.2495 16.4849 13.4098C15.9441 13.7232 15.3026 13.9521 14.6446 14.0336C13.9866 14.1163 13.3259 14.075 12.7243 13.9474C12.1194 13.8233 11.5683 13.6234 11.0624 13.3924C10.0541 12.9234 9.21059 12.3339 8.46485 11.7099C8.09036 11.3983 7.7392 11.0728 7.40664 10.7423L7.01384 10.348C6.89541 10.2337 6.77579 10.1189 6.65736 10.0137C6.18009 9.59167 5.73708 9.26915 5.24917 9.06803C4.76481 8.85745 4.14489 8.77091 3.38439 8.91327C2.62684 9.05415 1.79574 9.38168 0.909424 9.84182Z"
        fill="#FAFAFA" />
    <path
        d="M4.90595 15.0461C4.90595 15.3447 4.66377 15.5869 4.36518 15.5869C4.06659 15.5869 3.82471 15.3447 3.82471 15.0461C3.82471 14.7476 4.06659 14.5054 4.36518 14.5054C4.66377 14.5054 4.90595 14.7476 4.90595 15.0461Z"
        fill="#FAFAFA" />
    <path
        d="M4.90595 15.0461C4.90595 15.3447 4.66377 15.5869 4.36518 15.5869C4.06659 15.5869 3.82471 15.3447 3.82471 15.0461C3.82471 14.7476 4.06659 14.5054 4.36518 14.5054C4.66377 14.5054 4.90595 14.7476 4.90595 15.0461Z"
        fill="#FAFAFA" />
</svg>